<svg xmlns="http://www.w3.org/2000/svg" viewBox="0 0 182.6 222.6"><defs><style>.cls-1{fill:#040404;}</style></defs><title>name_4</title><g id="圖層_2" data-name="圖層 2"><g id="圖層_1-2" data-name="圖層 1"><rect class="cls-1" x="49.3" y="107.4" width="75.9" height="18.9"/><polygon class="cls-1" points="175.9 163.3 109.7 13.8 109.6 13.9 91 55.8 144.7 177.1 182.1 177 175.9 163.3"/><polygon class="cls-1" points="78.6 0 5.9 164.2 0 177.1 37.5 177.1 109.8 13.8 78.6 0"/><path class="cls-1" d="M4.3,217.2H.7l8.8-28.7h3.8l8.9,28.7H18.3l-2-6.3H6.2ZM7.1,208h8.4L12,197.1l-.8-2.9-.7,2.9Z"/><path class="cls-1" d="M42.4,214v3.2H26.9V188.5h3.7v25.6H42.4Z"/><path class="cls-1" d="M64.8,214v3.2H49.3V188.5H64.5v2.9H53v9.8H63.3v2.9H53v10.1H64.8Z"/><path class="cls-1" d="M88.5,216.9a17.16,17.16,0,0,1-5.8,1.2,11.23,11.23,0,0,1-6.2-1.8,11.37,11.37,0,0,1-4.4-5.4,20.89,20.89,0,0,1-1.6-8.1,18.75,18.75,0,0,1,1.6-8,11.27,11.27,0,0,1,10.6-7.2,17.16,17.16,0,0,1,5.8,1.2v3.4a11.35,11.35,0,0,0-5.9-1.7,6.29,6.29,0,0,0-4.1,1.5,11.08,11.08,0,0,0-3,4.5,16.9,16.9,0,0,0-1.1,6.4,17.47,17.47,0,0,0,1.2,6.5,10,10,0,0,0,3,4.4,6,6,0,0,0,4,1.5,12.07,12.07,0,0,0,5.9-1.7Z"/><path class="cls-1" d="M94.9,217.2l-3.3-28.7H95L97,206l.3,2.9h.1l.4-2.9,3-17.5h3.4l3.4,18.2.3,2.8h.1l.2-2.8,2.1-18.2h2.9l-3.5,28.7h-3.4l-3.7-19.5-.4-2.9h-.1l-.3,2.9-3.3,19.5Z"/><path class="cls-1" d="M118,217.2h-3.6l8.8-28.7H127l8.9,28.7H132l-2-6.3H119.9Zm2.8-9.2h8.4l-3.5-10.9-.8-2.9-.7,2.9Z"/><path class="cls-1" d="M142.3,217.2h-3.4V188.5h3.4l10.2,19.1,1.1,2.9h.1l-.1-2.9V188.5H157v28.7h-3.4l-9.9-18.8-1.4-3,.1,3v18.8Z"/><path class="cls-1" d="M179.5,217.2a19.73,19.73,0,0,1-5.6.9,11.65,11.65,0,0,1-6.4-1.8,12,12,0,0,1-4.4-5.4,19.21,19.21,0,0,1-1.6-8.1,18.75,18.75,0,0,1,1.6-8,11.27,11.27,0,0,1,10.6-7.2,17.16,17.16,0,0,1,5.8,1.2v3.4a11.35,11.35,0,0,0-5.9-1.7,6.49,6.49,0,0,0-4.1,1.5,11.08,11.08,0,0,0-3,4.5,19.11,19.11,0,0,0-1.1,6.4,17.28,17.28,0,0,0,2.1,8.5,7.05,7.05,0,0,0,6.7,3.8,8.64,8.64,0,0,0,1.5-.1v-9.3h-2.9v-2.9h6.6v14.3Z"/><line class="cls-1" y1="182.1" x2="182.1" y2="182.1"/><rect class="cls-1" y="181.1" width="182.1" height="2"/><line class="cls-1" x1="0.6" y1="221.6" x2="182.6" y2="221.6"/><rect class="cls-1" x="0.6" y="220.6" width="182" height="2"/></g></g></svg>