<svg
  xmlns="http://www.w3.org/2000/svg"
  viewBox="0 0 162.73 200.87">
  <defs>
    <style>.cls-1{fill:#1f1b3b;}.cls-2{fill:none;stroke:#1f1b3b;stroke-miterlimit:10;stroke-width:2px;}</style>
  </defs>

    //center
    <rect class="cls-1" x="44.04" y="96.06" width="67.84" height="16.9"/>
    //right
    <polygon class="cls-1" points="157.22 145.98 98.06 12.35 97.94 12.4 81.35 49.89 129.35 158.32 162.73 158.29 157.22 145.98"/>
    //left
    <polygon class="cls-1" points="70.21 0 5.21 146.84 0 158.32 33.46 158.32 98.09 12.34 70.21 0"/>
    <path class="cls-1" d="M3.76,194.19H.55l7.91-25.68h3.39l8,25.68H16.29l-1.76-5.65h-9ZM6.3,186h7.49l-3.1-9.75L10,173.64l-.65,2.58Z"/>
    <path class="cls-1" d="M37.84,191.36v2.83H24V168.51h3.35v22.85Z"/>
    <path class="cls-1" d="M57.91,191.36v2.83H44V168.51H57.65v2.58H47.38v8.72h9.23v2.56H47.38v9Z"/>
    <path class="cls-1" d="M79,193.9A15.2,15.2,0,0,1,73.87,195a10.1,10.1,0,0,1-5.55-1.62,10.59,10.59,0,0,1-3.94-4.8,19.16,19.16,0,0,1,0-14.38,10.67,10.67,0,0,1,3.93-4.82,10.09,10.09,0,0,1,5.58-1.64A15,15,0,0,1,79,168.8v3a10.41,10.41,0,0,0-5.3-1.55,5.59,5.59,0,0,0-3.65,1.36,9.49,9.49,0,0,0-2.65,4,15.8,15.8,0,0,0-1,5.69,15.55,15.55,0,0,0,1,5.78,9.53,9.53,0,0,0,2.66,4,5.56,5.56,0,0,0,3.6,1.32,10.55,10.55,0,0,0,5.3-1.54Z"/>
    <path class="cls-1" d="M84.8,194.19l-3-25.68h3l1.76,15.64.22,2.6H87l.32-2.6L90,168.51h3l3.08,16.27.31,2.47h.08l.21-2.49,1.92-16.25h2.62l-3.1,25.68H95l-3.31-17.42-.35-2.61h-.08l-.31,2.61-3,17.42Z"/>
    <path class="cls-1" d="M105.46,194.19h-3.21l7.91-25.68h3.39l8,25.68H118l-1.76-5.65h-9ZM108,186h7.49l-3.1-9.75-.73-2.58-.64,2.58Z"/>
    <path class="cls-1" d="M127.21,194.19h-3.08V168.51h3l9.08,17.09,1,2.55h.08l-.08-2.55V168.51h3.08v25.68h-3.08l-8.83-16.82-1.24-2.7.06,2.67Z"/>
    <path class="cls-1" d="M160.4,194.17a18,18,0,0,1-5,.8,10.09,10.09,0,0,1-9.65-6.39,19.18,19.18,0,0,1,0-14.41,10.59,10.59,0,0,1,3.92-4.82,10.08,10.08,0,0,1,5.57-1.64,15,15,0,0,1,5.17,1.09v3a10.45,10.45,0,0,0-5.32-1.55,5.56,5.56,0,0,0-3.63,1.36,9.4,9.4,0,0,0-2.65,4,16.1,16.1,0,0,0-1,5.72A15.41,15.41,0,0,0,149.7,189a6.39,6.39,0,0,0,6,3.42c.36,0,.81,0,1.34-.08V184h-2.55v-2.57h5.91Z"/>
    <line class="cls-2" y1="162.81" x2="162.73" y2="162.81"/>
    <line class="cls-2" x1="0.55" y1="199.87" x2="162.73" y2="199.87"/>

</svg>
