<svg xmlns="http://www.w3.org/2000/svg"
  xmlns:xlink="http://www.w3.org/1999/xlink"
  viewBox="0 0 184.01 230">
  <defs>
  <style>
    .cls-1{fill:url(#未命名漸層_138);}.cls-2{fill:url(#未命名漸層_138-2);}.cls-3{fill:url(#未命名漸層_138-3);}.cls-4{fill:url(#未命名漸層_138-4);}.cls-5{fill:url(#未命名漸層_138-5);}.cls-6{fill:url(#未命名漸層_138-6);}.cls-7{fill:url(#未命名漸層_138-7);}.cls-8{fill:url(#未命名漸層_138-8);}.cls-9{fill:url(#未命名漸層_138-9);}.cls-10{fill:url(#未命名漸層_138-10);}.cls-11{fill:url(#未命名漸層_138-11);}.cls-12,.cls-13,.cls-14{fill:none;stroke-miterlimit:10;}.cls-12,.cls-13{stroke-width:2px;}.cls-12{stroke:url(#未命名漸層_138-12);}.cls-13{stroke:url(#未命名漸層_138-13);}.cls-14{stroke-width:4px;stroke:url(#未命名漸層_138-14);}</style>
  <linearGradient id="未命名漸層_138" x1="34.09" y1="65.85" x2="127.07" y2="159.28" gradientUnits="userSpaceOnUse">
    <stop offset="0" stop-color="#287d93"/>
    <stop offset="1" stop-color="#1f1c3c"/>
  </linearGradient><linearGradient id="未命名漸層_138-2" x1="10.64" y1="9.6" x2="175.59" y2="142.81" xlink:href="#未命名漸層_138"/>
  <linearGradient id="未命名漸層_138-3" x1="86.92" y1="15.43" x2="46.24" y2="143.28" xlink:href="#未命名漸層_138"/>
  <linearGradient id="未命名漸層_138-4" x1="-2.59" y1="193.22" x2="160.13" y2="228.09" xlink:href="#未命名漸層_138"/>
  <linearGradient id="未命名漸層_138-5" x1="-1.73" y1="189.24" x2="160.98" y2="224.11" xlink:href="#未命名漸層_138"/>
  <linearGradient id="未命名漸層_138-6" x1="-0.63" y1="184.08" x2="162.09" y2="218.94" xlink:href="#未命名漸層_138"/>
  <linearGradient id="未命名漸層_138-7" x1="0.39" y1="179.35" x2="163.1" y2="214.22" xlink:href="#未命名漸層_138"/>
  <linearGradient id="未命名漸層_138-8" x1="1.23" y1="175.44" x2="163.94" y2="210.3" xlink:href="#未命名漸層_138"/>
  <linearGradient id="未命名漸層_138-9" x1="1.88" y1="172.39" x2="164.59" y2="207.25" xlink:href="#未命名漸層_138"/>
  <linearGradient id="未命名漸層_138-10" x1="2.95" y1="167.41" x2="165.66" y2="202.27" xlink:href="#未命名漸層_138"/>
  <linearGradient id="未命名漸層_138-11" x1="3.96" y1="162.68" x2="166.68" y2="197.54" xlink:href="#未命名漸層_138"/>
  <linearGradient id="未命名漸層_138-12" x1="10.54" y1="178.83" x2="173.27" y2="178.83" xlink:href="#未命名漸層_138"/>
  <linearGradient id="未命名漸層_138-13" x1="2" y1="229" x2="184.01" y2="229" xlink:href="#未命名漸層_138"/>
  <linearGradient id="未命名漸層_138-14" x1="-19.17" y1="23.74" x2="201.9" y2="202.26" xlink:href="#未命名漸層_138"/></defs>
  <title>name_name</title>
  <g id="圖層_2" data-name="圖層 2">
    <g id="圖層_1-2" data-name="圖層 1">
      <rect class="cls-1" x="54.58" y="112.07" width="67.84" height="16.9"/>
      <polygon class="cls-2" points="167.76 162 108.61 28.36 108.48 28.42 91.89 65.91 139.89 174.34 173.27 174.31 167.76 162"/>
      <polygon class="cls-3" points="80.75 16.02 15.75 162.86 10.54 174.34 44 174.34 108.63 28.36 80.75 16.02"/><path class="cls-4" d="M14.3,210.21H11.09L19,184.52h3.39l8,25.69H26.83l-1.76-5.65H16ZM16.84,202h7.49l-3.1-9.75-.73-2.58-.64,2.58Z"/>
      <path class="cls-5" d="M48.38,207.38v2.83H34.51V184.52h3.35v22.86Z"/><path class="cls-6" d="M68.45,207.38v2.83H54.58V184.52H68.19v2.59H57.92v8.71h9.24v2.57H57.92v9Z"/>
      <path class="cls-7" d="M89.58,209.92A15.17,15.17,0,0,1,84.41,211a10.18,10.18,0,0,1-5.55-1.61,10.59,10.59,0,0,1-3.94-4.8,19.29,19.29,0,0,1,0-14.38,10.62,10.62,0,0,1,3.93-4.82,10.09,10.09,0,0,1,5.58-1.64,15,15,0,0,1,5.17,1.08v3.05a10.51,10.51,0,0,0-5.3-1.55,5.56,5.56,0,0,0-3.64,1.37,9.41,9.41,0,0,0-2.66,4,15.76,15.76,0,0,0-1,5.69,15.59,15.59,0,0,0,1,5.78,9.6,9.6,0,0,0,2.66,4,5.56,5.56,0,0,0,3.6,1.32,10.65,10.65,0,0,0,5.3-1.54Z"/>
      <path class="cls-8" d="M95.34,210.21l-3-25.69h3l1.76,15.65.22,2.6h.1l.32-2.6,2.7-15.65h3l3.08,16.28.31,2.47H107l.21-2.49,1.92-16.26h2.62l-3.1,25.69h-3.17l-3.31-17.42-.35-2.62h-.08l-.31,2.62-3,17.42Z"/>
      <path class="cls-9" d="M116,210.21h-3.22l7.91-25.69h3.39l8,25.69h-3.52l-1.76-5.65h-9Zm2.53-8.22H126l-3.1-9.75-.72-2.58-.65,2.58Z"/><path class="cls-10" d="M137.75,210.21h-3.08V184.52h3l9.09,17.1,1,2.55h.08l-.08-2.55v-17.1h3.08v25.69h-3.08l-8.83-16.82-1.24-2.7.06,2.66Z"/>
      <path class="cls-11" d="M170.94,210.19a17.94,17.94,0,0,1-5,.79,10.45,10.45,0,0,1-5.72-1.59,10.57,10.57,0,0,1-3.93-4.79,19.18,19.18,0,0,1,0-14.41,10.54,10.54,0,0,1,3.92-4.82,10.08,10.08,0,0,1,5.57-1.64,15,15,0,0,1,5.17,1.08v3.05a10.54,10.54,0,0,0-5.31-1.55,5.58,5.58,0,0,0-3.64,1.37,9.3,9.3,0,0,0-2.64,4,15.84,15.84,0,0,0-1,5.72,15.35,15.35,0,0,0,1.91,7.6,6.39,6.39,0,0,0,6,3.43,12.3,12.3,0,0,0,1.34-.09v-8.28H165v-2.56h5.91Z"/>
      <line class="cls-12" x1="10.54" y1="178.83" x2="173.27" y2="178.83"/><line class="cls-13" x1="2" y1="229" x2="184.01" y2="229"/><rect class="cls-14" x="2" y="2" width="178.73" height="222"/></g></g></svg>
