<?xml version="1.0" encoding="utf-8"?>
<!-- Generator: Adobe Illustrator 22.0.1, SVG Export Plug-In . SVG Version: 6.00 Build 0)  -->
<svg version="1.1" id="圖層_1" xmlns="http://www.w3.org/2000/svg" xmlns:xlink="http://www.w3.org/1999/xlink" x="0px" y="0px"
	 viewBox="0 0 186.4 231" style="enable-background:new 0 0 186.4 231;" xml:space="preserve">
<style type="text/css">
	.st0{fill:url(#SVGID_1_);}
	.st1{fill:url(#SVGID_2_);}
	.st2{fill:url(#SVGID_3_);}
	.st3{fill:url(#SVGID_4_);}
	.st4{fill:url(#SVGID_5_);}
	.st5{fill:url(#SVGID_6_);}
	.st6{fill:url(#SVGID_7_);}
	.st7{fill:url(#SVGID_8_);}
	.st8{fill:url(#SVGID_9_);}
	.st9{fill:url(#SVGID_10_);}
	.st10{fill:url(#SVGID_11_);}
	.st11{fill:none;stroke:url(#SVGID_12_);stroke-width:2;stroke-miterlimit:10;}
	.st12{fill:none;stroke:url(#SVGID_13_);stroke-width:2;stroke-miterlimit:10;}
</style>
<linearGradient id="SVGID_1_" gradientUnits="userSpaceOnUse" x1="29.0921" y1="61.6333" x2="133.0921" y2="166.1333">
	<stop  offset="0" style="stop-color:#287D93"/>
	<stop  offset="0.9986" style="stop-color:#1F1C3C"/>
</linearGradient>
<rect x="52" y="113.3" class="st0" width="75.9" height="18.9"/>
<linearGradient id="SVGID_2_" gradientUnits="userSpaceOnUse" x1="2.8547" y1="-1.2886" x2="187.3547" y2="147.7114">
	<stop  offset="0" style="stop-color:#287D93"/>
	<stop  offset="0.9986" style="stop-color:#1F1C3C"/>
</linearGradient>
<polygon class="st1" points="178.6,169.2 112.4,19.7 112.3,19.8 93.7,61.7 147.4,183 184.8,182.9 "/>
<linearGradient id="SVGID_3_" gradientUnits="userSpaceOnUse" x1="88.1819" y1="5.2379" x2="42.6819" y2="148.2379">
	<stop  offset="0" style="stop-color:#287D93"/>
	<stop  offset="0.9986" style="stop-color:#1F1C3C"/>
</linearGradient>
<polygon class="st2" points="81.3,5.9 8.6,170.1 2.7,183 40.2,183 112.5,19.7 "/>
<g>
	<linearGradient id="SVGID_4_" gradientUnits="userSpaceOnUse" x1="-11.9329" y1="204.1017" x2="170.0671" y2="243.1017">
		<stop  offset="0" style="stop-color:#287D93"/>
		<stop  offset="0.9986" style="stop-color:#1F1C3C"/>
	</linearGradient>
	<path class="st3" d="M7,223.1H3.4l8.8-28.7H16l8.9,28.7H21l-2-6.3H8.9L7,223.1z M9.8,213.9h8.4L14.7,203l-0.8-2.9l-0.7,2.9
		L9.8,213.9z"/>
	<linearGradient id="SVGID_5_" gradientUnits="userSpaceOnUse" x1="-10.978" y1="199.6457" x2="171.022" y2="238.6457">
		<stop  offset="0" style="stop-color:#287D93"/>
		<stop  offset="0.9986" style="stop-color:#1F1C3C"/>
	</linearGradient>
	<path class="st4" d="M45.1,219.9v3.2H29.6v-28.7h3.7v25.6H45.1z"/>
	<linearGradient id="SVGID_6_" gradientUnits="userSpaceOnUse" x1="-9.7406" y1="193.8711" x2="172.2594" y2="232.8711">
		<stop  offset="0" style="stop-color:#287D93"/>
		<stop  offset="0.9986" style="stop-color:#1F1C3C"/>
	</linearGradient>
	<path class="st5" d="M67.5,219.9v3.2H52v-28.7h15.2v2.9H55.7v9.8h10.3v2.9H55.7v10.1H67.5z"/>
	<linearGradient id="SVGID_7_" gradientUnits="userSpaceOnUse" x1="-8.6072" y1="188.5816" x2="173.3928" y2="227.5816">
		<stop  offset="0" style="stop-color:#287D93"/>
		<stop  offset="0.9986" style="stop-color:#1F1C3C"/>
	</linearGradient>
	<path class="st6" d="M91.2,222.8c-2.2,0.8-4.1,1.2-5.8,1.2c-2.3,0-4.3-0.6-6.2-1.8c-1.9-1.2-3.4-3-4.4-5.4c-1-2.4-1.6-5.1-1.6-8.1
		c0-3,0.5-5.6,1.6-8c1-2.4,2.5-4.2,4.4-5.4c1.9-1.2,4-1.8,6.2-1.8c1.7,0,3.6,0.4,5.8,1.2v3.4c-2-1.2-4-1.7-5.9-1.7
		c-1.5,0-2.9,0.5-4.1,1.5c-1.2,1-2.2,2.5-3,4.5c-0.8,2-1.1,4.1-1.1,6.4c0,2.3,0.4,4.5,1.2,6.5c0.8,2,1.8,3.5,3,4.4
		c1.2,1,2.5,1.5,4,1.5c2,0,3.9-0.6,5.9-1.7V222.8z"/>
	<linearGradient id="SVGID_8_" gradientUnits="userSpaceOnUse" x1="-7.6696" y1="184.2062" x2="174.3304" y2="223.2062">
		<stop  offset="0" style="stop-color:#287D93"/>
		<stop  offset="0.9986" style="stop-color:#1F1C3C"/>
	</linearGradient>
	<path class="st7" d="M97.6,223.1l-3.3-28.7h3.4l2,17.5l0.3,2.9h0.1l0.4-2.9l3-17.5h3.4l3.4,18.2l0.3,2.8h0.1l0.2-2.8l2.1-18.2h2.9
		l-3.5,28.7H109l-3.7-19.5l-0.4-2.9h-0.1l-0.3,2.9l-3.3,19.5H97.6z"/>
	<linearGradient id="SVGID_9_" gradientUnits="userSpaceOnUse" x1="-6.9387" y1="180.7952" x2="175.0613" y2="219.7952">
		<stop  offset="0" style="stop-color:#287D93"/>
		<stop  offset="0.9986" style="stop-color:#1F1C3C"/>
	</linearGradient>
	<path class="st8" d="M120.7,223.1h-3.6l8.8-28.7h3.8l8.9,28.7h-3.9l-2-6.3h-10.1L120.7,223.1z M123.5,213.9h8.4l-3.5-10.9l-0.8-2.9
		l-0.7,2.9L123.5,213.9z"/>
	<linearGradient id="SVGID_10_" gradientUnits="userSpaceOnUse" x1="-5.7448" y1="175.224" x2="176.2552" y2="214.224">
		<stop  offset="0" style="stop-color:#287D93"/>
		<stop  offset="0.9986" style="stop-color:#1F1C3C"/>
	</linearGradient>
	<path class="st9" d="M145,223.1h-3.4v-28.7h3.4l10.2,19.1l1.1,2.9h0.1l-0.1-2.9v-19.1h3.4v28.7h-3.4l-9.9-18.8l-1.4-3l0.1,3V223.1z
		"/>
	<linearGradient id="SVGID_11_" gradientUnits="userSpaceOnUse" x1="-4.6111" y1="169.9331" x2="177.3889" y2="208.9331">
		<stop  offset="0" style="stop-color:#287D93"/>
		<stop  offset="0.9986" style="stop-color:#1F1C3C"/>
	</linearGradient>
	<path class="st10" d="M182.2,223.1c-2,0.6-3.9,0.9-5.6,0.9c-2.4,0-4.5-0.6-6.4-1.8s-3.3-3-4.4-5.4c-1.1-2.4-1.6-5.1-1.6-8.1
		c0-3,0.5-5.6,1.6-8c1-2.4,2.5-4.2,4.4-5.4c1.9-1.2,4-1.8,6.2-1.8c1.7,0,3.6,0.4,5.8,1.2v3.4c-2-1.2-4-1.7-5.9-1.7
		c-1.5,0-2.8,0.5-4.1,1.5c-1.2,1-2.2,2.5-3,4.5c-0.7,2-1.1,4.1-1.1,6.4c0,3.1,0.7,6,2.1,8.5c1.4,2.6,3.7,3.8,6.7,3.8
		c0.4,0,0.9,0,1.5-0.1v-9.3h-2.9v-2.9h6.6V223.1z"/>
</g>
<linearGradient id="SVGID_12_" gradientUnits="userSpaceOnUse" x1="2.7491" y1="188" x2="184.7619" y2="188">
	<stop  offset="0" style="stop-color:#287D93"/>
	<stop  offset="0.9986" style="stop-color:#1F1C3C"/>
</linearGradient>
<line class="st11" x1="2.7" y1="188" x2="184.8" y2="188"/>
<linearGradient id="SVGID_13_" gradientUnits="userSpaceOnUse" x1="3.2721" y1="231" x2="185.2849" y2="231">
	<stop  offset="0" style="stop-color:#287D93"/>
	<stop  offset="0.9986" style="stop-color:#1F1C3C"/>
</linearGradient>
<line class="st12" x1="3.3" y1="231" x2="185.3" y2="231"/>
</svg>
